<svg xmlns="http://www.w3.org/2000/svg" version="1.1" xmlns:xlink="http://www.w3.org/1999/xlink" xmlns:svgjs="http://svgjs.dev/svgjs" width="1500" height="1500" viewBox="0 0 1500 1500"><rect width="1500" height="1500" fill="#000000"></rect><g transform="matrix(0.6666666666666666,0,0,0.6666666666666666,249.39393939393938,453.93906731081154)"><svg viewBox="0 0 396 235" data-background-color="#ffffff" preserveAspectRatio="xMidYMid meet" height="890" width="1500" xmlns="http://www.w3.org/2000/svg" xmlns:xlink="http://www.w3.org/1999/xlink"><g id="tight-bounds" transform="matrix(1,0,0,1,0.2400000000000091,-0.23991149107985166)"><svg viewBox="0 0 395.52 235.4798229821597" height="235.4798229821597" width="395.52"><g><svg viewBox="0 0 395.52 235.4798229821597" height="235.4798229821597" width="395.52"><g transform="matrix(1,0,0,1,0,141.63804052127404)"><svg viewBox="0 0 395.52 93.84178246088567" height="93.84178246088567" width="395.52"><g id="textblocktransform"><svg viewBox="0 0 395.52 93.84178246088567" height="93.84178246088567" width="395.52" id="textblock"><g><svg viewBox="0 0 395.52 50.61377336251894" height="50.61377336251894" width="395.52"><g transform="matrix(1,0,0,1,0,0)"><svg width="395.52" viewBox="2.45 -37.5 296.92 38" height="50.61377336251894" data-palette-color="#000000"><path d="M12.7 0.5L12.7 0.5Q10.15 0.5 8.22-1.1 6.3-2.7 5.03-5.43 3.75-8.15 3.1-11.55 2.45-14.95 2.45-18.5L2.45-18.5Q2.45-22.05 3.1-25.45 3.75-28.85 5.03-31.58 6.3-34.3 8.22-35.9 10.15-37.5 12.7-37.5L12.7-37.5Q14.7-37.5 16.07-36.68 17.45-35.85 18.25-34.7 19.05-33.55 19.3-32.45L19.3-32.45 19.7-32.45 19.7-37 21.3-37 21.3-24.4 18.7-24.4 18.7-25.55Q18.7-29.4 17.82-31.6 16.95-33.8 15.58-34.73 14.2-35.65 12.7-35.65L12.7-35.65Q9.8-35.65 8.22-33.35 6.65-31.05 6.65-26.75L6.65-26.75 6.65-10.25Q6.65-5.95 8.2-3.65 9.75-1.35 12.7-1.35L12.7-1.35Q14.2-1.35 15.58-2.27 16.95-3.2 17.82-5.4 18.7-7.6 18.7-11.45L18.7-11.45 18.7-12.6 21.3-12.6 21.3 0 19.7 0 19.7-4.55 19.3-4.55Q19.05-3.5 18.25-2.33 17.45-1.15 16.07-0.33 14.7 0.5 12.7 0.5ZM32.85 0L24.95 0 24.95-1.7 27.6-1.7 36.25-37 38.25-37 46.9-1.7 50.1-1.7 50.1 0 38.3 0 38.3-1.7 43.35-1.7 40.45-13.55 32.2-13.55 29.35-1.7 32.85-1.7 32.85 0ZM40.05-15.15L36.3-30.6 32.6-15.15 40.05-15.15ZM72.59 0L51.55 0 51.55-1.7 55.75-1.7 55.75-35.3 51.55-35.3 51.55-37 63.45-37 63.45-35.3 59.25-35.3 59.25-1.75 66.34-1.75Q70-1.75 70.45-5.4L70.45-5.4 71.2-11.7 72.59-11.7 72.59 0ZM97.49 0L77.59 0 77.59-1.7 85.79-1.7 85.79-35.3 77.59-35.3 77.59-37 97.49-37 97.49-35.3 89.29-35.3 89.29-1.7 97.49-1.7 97.49 0ZM113.44 0.5L113.44 0.5Q111.29 0.5 109.82-0.33 108.34-1.15 107.47-2.33 106.59-3.5 106.14-4.7 105.69-5.9 105.59-6.65L105.59-6.65 105.19-6.65 105.19 0 103.59 0 103.59-14.75 106.19-14.75 106.19-12.8Q106.19-11.95 106.32-10.5 106.44-9.05 106.82-7.45 107.19-5.85 107.94-4.42 108.69-3 109.99-2.1 111.29-1.2 113.29-1.2L113.29-1.2Q115.69-1.2 117.19-2.68 118.69-4.15 118.69-6.8L118.69-6.8Q118.69-9.1 117.67-11.05 116.64-13 114.99-14.78 113.34-16.55 111.52-18.28 109.69-20 108.04-21.78 106.39-23.55 105.37-25.58 104.34-27.6 104.34-29.95L104.34-29.95Q104.34-32.3 105.39-33.98 106.44-35.65 108.17-36.58 109.89-37.5 111.99-37.5L111.99-37.5Q114.34-37.5 115.79-36.5 117.24-35.5 118.04-34.2 118.84-32.9 119.14-31.95L119.14-31.95 119.54-31.95 119.54-37 121.14-37 121.14-24.6 118.54-24.6 118.54-26.2Q118.54-28.9 117.77-31.1 116.99-33.3 115.57-34.58 114.14-35.85 112.09-35.85L112.09-35.85Q110.04-35.85 108.87-34.5 107.69-33.15 107.69-31.1L107.69-31.1Q107.69-29.1 108.72-27.28 109.74-25.45 111.39-23.73 113.04-22 114.87-20.25 116.69-18.5 118.34-16.63 119.99-14.75 121.02-12.63 122.04-10.5 122.04-8L122.04-8Q122.04-5.4 120.87-3.5 119.69-1.6 117.74-0.55 115.79 0.5 113.44 0.5ZM146.09 0L128.69 0 128.69-1.6 135.64-1.6 135.64-35.25 132.69-35.25Q128.99-35.25 128.54-31.65L128.54-31.65 127.84-26.3 126.44-26.3 126.44-37.5 127.34-37.5 128.84-37 145.94-37 147.44-37.5 148.34-37.5 148.34-26.3 146.94-26.3 146.24-31.65Q145.79-35.25 142.09-35.25L142.09-35.25 139.14-35.25 139.14-1.6 146.09-1.6 146.09 0ZM170.44 0.5L170.44 0.5Q168.34 0.5 167.21-0.93 166.09-2.35 166.09-4.65L166.09-4.65 166.09-13.85Q166.09-16.6 165.06-17.68 164.04-18.75 160.99-18.75L160.99-18.75 158.59-18.75 158.59-1.7 162.74-1.7 162.74 0 150.89 0 150.89-1.7 155.09-1.7 155.09-35.3 150.89-35.3 150.89-37 162.39-37Q166.14-37 168.36-35.6 170.59-34.2 171.56-32.1 172.54-30 172.54-27.95L172.54-27.95Q172.54-24.6 170.49-22.45 168.44-20.3 165.04-19.6L165.04-19.6 164.79-19.55 164.79-19.25 165.04-19.2Q167.24-18.75 168.39-17.6 169.54-16.45 169.54-13.85L169.54-13.85 169.54-5.05Q169.54-4.55 169.61-3.78 169.69-3 170.09-2.43 170.49-1.85 171.39-1.85L171.39-1.85Q172.54-1.85 172.89-2.78 173.24-3.7 173.24-4.75L173.24-4.75 173.24-13.4 174.74-13.4 174.74-4.6Q174.74-3.5 174.36-2.3 173.99-1.1 173.06-0.3 172.14 0.5 170.44 0.5ZM158.59-35.4L158.59-20.35 161.54-20.35Q164.89-20.35 166.66-21.63 168.44-22.9 168.44-26.25L168.44-26.25 168.44-29Q168.44-32.35 166.66-33.88 164.89-35.4 161.54-35.4L161.54-35.4 158.59-35.4ZM197.58 0L176.53 0 176.53-1.7 180.73-1.7 180.73-35.3 176.53-35.3 176.53-37 197.08-37 197.08-26.3 195.68-26.3 194.98-31.65Q194.53-35.25 190.83-35.25L190.83-35.25 184.23-35.25 184.23-21.05 190.68-21.05 190.68-27.4 192.28-27.4 192.28-13 190.68-13 190.68-19.35 184.23-19.35 184.23-1.75 191.33-1.75Q194.98-1.75 195.43-5.4L195.43-5.4 196.18-11.7 197.58-11.7 197.58 0ZM220.68 0.5L219.48 0.5 206.73-29.3 206.73-1.7 210.93-1.7 210.93 0 201.83 0 201.83-1.7 205.03-1.7 205.03-35.3 201.83-35.3 201.83-37 206.93-37 218.98-8.8 218.98-35.3 214.78-35.3 214.78-37 223.88-37 223.88-35.3 220.68-35.3 220.68 0.5ZM237.43 0.5L237.43 0.5Q235.18 0.5 233.35-0.95 231.53-2.4 230.2-5 228.88-7.6 228.15-11.03 227.43-14.45 227.43-18.4L227.43-18.4Q227.43-22 228.08-25.4 228.73-28.8 230.03-31.55 231.33-34.3 233.28-35.9 235.23-37.5 237.88-37.5L237.88-37.5Q239.73-37.5 241.05-36.68 242.38-35.85 243.2-34.7 244.03-33.55 244.28-32.45L244.28-32.45 244.68-32.45 244.68-37 246.28-37 246.28-24.4 243.68-24.4 243.68-25.55Q243.68-29.4 242.8-31.6 241.93-33.8 240.53-34.73 239.13-35.65 237.53-35.65L237.53-35.65Q234.78-35.65 233.2-33.35 231.63-31.05 231.63-26.75L231.63-26.75 231.63-10.25Q231.63-5.95 233.18-3.65 234.73-1.35 237.33-1.35L237.33-1.35Q239.43-1.35 240.68-2.7 241.93-4.05 242.55-6.2 243.18-8.35 243.38-10.78 243.58-13.2 243.58-15.35L243.58-15.35 243.58-18.5 235.28-18.5 235.28-20.2 246.38-20.2 246.38 0 244.63 0 244.63-6 244.18-6Q243.93-4.6 243.13-3.1 242.33-1.6 240.9-0.55 239.48 0.5 237.43 0.5ZM271.08 0L253.68 0 253.68-1.6 260.63-1.6 260.63-35.25 257.68-35.25Q253.98-35.25 253.53-31.65L253.53-31.65 252.83-26.3 251.43-26.3 251.43-37.5 252.33-37.5 253.83-37 270.93-37 272.43-37.5 273.33-37.5 273.33-26.3 271.93-26.3 271.23-31.65Q270.78-35.25 267.08-35.25L267.08-35.25 264.13-35.25 264.13-1.6 271.08-1.6 271.08 0ZM285.42 0L275.52 0 275.52-1.7 278.82-1.7 278.82-35.3 275.52-35.3 275.52-37 285.42-37 285.42-35.3 282.12-35.3 282.12-20.8 292.77-20.8 292.77-35.3 289.47-35.3 289.47-37 299.37-37 299.37-35.3 296.07-35.3 296.07-1.7 299.37-1.7 299.37 0 289.47 0 289.47-1.7 292.77-1.7 292.77-19.2 282.12-19.2 282.12-1.7 285.42-1.7 285.42 0Z" opacity="1" transform="matrix(1,0,0,1,0,0)" fill="#ffffff" class="wordmark-text-0" data-fill-palette-color="primary" id="text-0"></path></svg></g></svg></g><g transform="matrix(1,0,0,1,0,62.56247052284896)"><svg viewBox="0 0 395.52 31.279311938036706" height="31.279311938036706" width="395.52"><g transform="matrix(1,0,0,1,0,0)"><svg width="395.52" viewBox="4.15 -35.23 570.5 45.12" height="31.279311938036706" data-palette-color="#000000"><path d="M27.54-14.79L27.54-35.11 32.13-35.11 32.13-14.82Q32.13-7.15 28.69-3.28 25.24 0.59 18.12 0.59L18.12 0.59Q4.15 0.59 4.15-14.82L4.15-14.82 4.15-35.11 8.74-35.11 8.74-14.79Q8.74-12.11 9.2-10.07 9.67-8.03 10.72-6.46 11.77-4.88 13.62-4.06 15.48-3.25 18.12-3.25L18.12-3.25Q20.26-3.25 21.91-3.8 23.56-4.35 24.61-5.32 25.66-6.3 26.33-7.78 27-9.25 27.27-10.95 27.54-12.65 27.54-14.79L27.54-14.79ZM40.57-24.95L40.57-24.95 44.62-25.85Q45.08-24.39 45.28-23.02L45.28-23.02Q45.38-22.36 45.52-20.41L45.52-20.41 46.04-20.41Q47.38-22.88 49.36-24.34L49.36-24.34Q51.53-25.95 53.95-25.95L53.95-25.95Q57.58-25.95 59.49-24.19L59.49-24.19Q61.12-22.71 61.76-19.63L61.76-19.63Q62.17-17.53 62.17-13.38L62.17-13.38 62.17 0 57.97 0 57.97-14.55Q57.97-18.19 57.27-19.75L57.27-19.75Q56.22-22.07 53.04-22.07L53.04-22.07Q50.8-22.07 48.65-19.92L48.65-19.92Q47.21-18.48 45.57-15.7L45.57-15.7 45.57 0 41.37 0 41.37-15.63Q41.37-18.92 41.2-21.31L41.2-21.31Q41.1-22.8 40.57-24.95ZM73.88-35.11L73.88-9.86Q73.88-7.86 73.93-6.51 73.98-5.15 74.05-4.13L74.05-4.13Q74.13-3.1 74.29-2.27 74.44-1.44 74.69-0.44L74.69-0.44Q73.66-0.17 72.64 0.06 71.61 0.29 70.59 0.46L70.59 0.46Q70.1-1.12 69.89-2.44 69.68-3.76 69.68-5.03L69.68-5.03 69.68-35.11 73.88-35.11ZM92.4-25.95L92.4-25.95Q93.6-25.95 94.89-25.77 96.19-25.59 97.43-25.07L97.43-25.07Q98.68-24.54 99.79-23.62 100.9-22.71 101.75-21.24L101.75-21.24Q102.61-19.75 103.1-17.66 103.59-15.58 103.59-12.7L103.59-12.7Q103.59-9.81 103.1-7.73 102.61-5.64 101.75-4.17L101.75-4.17Q100.9-2.69 99.79-1.76 98.68-0.83 97.43-0.32L97.43-0.32Q96.19 0.22 94.89 0.4 93.6 0.59 92.4 0.59L92.4 0.59Q91.23 0.59 89.95 0.4 88.67 0.22 87.42-0.32L87.42-0.32Q86.18-0.83 85.08-1.76 83.98-2.69 83.13-4.17L83.13-4.17Q82.27-5.64 81.78-7.73 81.3-9.81 81.3-12.7L81.3-12.7Q81.3-15.58 81.78-17.66 82.27-19.75 83.13-21.24L83.13-21.24Q83.98-22.71 85.08-23.62 86.18-24.54 87.42-25.07L87.42-25.07Q88.67-25.59 89.94-25.77 91.21-25.95 92.4-25.95ZM92.4-22.51L92.4-22.51Q91.01-22.51 89.78-22.07 88.55-21.63 87.62-20.53L87.62-20.53Q86.67-19.41 86.1-17.53 85.54-15.65 85.54-12.7L85.54-12.7Q85.54-9.77 86.1-7.87 86.67-5.98 87.62-4.88L87.62-4.88Q88.55-3.76 89.78-3.33 91.01-2.91 92.4-2.91L92.4-2.91Q93.82-2.91 95.08-3.33 96.33-3.76 97.29-4.88L97.29-4.88Q98.24-5.98 98.79-7.87 99.34-9.77 99.34-12.7L99.34-12.7Q99.34-15.65 98.79-17.53 98.24-19.41 97.29-20.53L97.29-20.53Q96.33-21.63 95.08-22.07 93.82-22.51 92.4-22.51ZM127.82-4.32L128.87-0.9Q126.96-0.24 124.8 0.17 122.64 0.59 120.71 0.59L120.71 0.59Q117.78 0.59 115.64-0.27 113.49-1.12 112.08-2.76 110.68-4.39 110-6.77 109.31-9.16 109.31-12.21L109.31-12.21Q109.31-15.53 110.16-18.09 111-20.65 112.6-22.4 114.2-24.15 116.5-25.05 118.81-25.95 121.74-25.95L121.74-25.95Q123.23-25.95 124.77-25.65 126.31-25.34 127.89-24.88L127.89-24.88 126.84-21.46Q125.57-21.88 124.49-22.12 123.4-22.36 122.2-22.36L122.2-22.36Q118.05-22.36 115.81-19.96 113.56-17.55 113.56-12.7L113.56-12.7Q113.56-10.42 113.89-8.63 114.22-6.84 115.06-5.58 115.9-4.32 117.36-3.66 118.81-3 121.06-3L121.06-3Q122.52-3 124.22-3.38 125.91-3.76 127.82-4.32L127.82-4.32ZM135.89 0L135.89-35.16 140.09-35.16 140.09-14.01 151.52-25.95 154.27-23.27 144.39-13.09 156.86 0 151.64 0 140.09-12.21 140.09 0 135.89 0ZM193.71-25.39L197.91-25.39 197.91 0.56Q197.91 2.98 197.11 4.74 196.32 6.49 194.92 7.64 193.51 8.79 191.58 9.34 189.66 9.89 187.39 9.89L187.39 9.89Q185.33 9.89 183.26 9.53 181.18 9.18 179.3 8.54L179.3 8.54Q179.62 7.69 179.96 6.88 180.31 6.08 180.65 5.27L180.65 5.27Q181.23 5.47 182.05 5.69 182.87 5.91 183.78 6.09 184.7 6.27 185.66 6.38 186.63 6.49 187.53 6.49L187.53 6.49Q188.95 6.49 190.1 6.12 191.24 5.74 192.05 4.98 192.85 4.22 193.28 3.11 193.71 2 193.71 0.56L193.71 0.56 193.71-4.96 193.24-4.96Q192.61-3.81 191.78-2.8 190.95-1.78 189.95-1.03 188.95-0.27 187.79 0.16 186.63 0.59 185.33 0.59L185.33 0.59Q183.55 0.59 182.23 0.18 180.92-0.22 179.98-1.01 179.04-1.81 178.44-2.99 177.84-4.17 177.52-5.74L177.52-5.74Q177.25-7.13 177.18-8.72 177.11-10.3 177.11-11.99L177.11-11.99 177.11-25.39 181.31-25.39 181.31-10.82Q181.31-9.23 181.45-7.85 181.6-6.47 182.1-5.46 182.6-4.44 183.58-3.87 184.55-3.3 186.24-3.3L186.24-3.3Q187.48-3.3 188.58-3.89 189.68-4.49 190.61-5.42 191.54-6.35 192.3-7.47 193.07-8.59 193.71-9.67L193.71-9.67 193.71-25.39ZM216.75-25.95L216.75-25.95Q217.94-25.95 219.24-25.77 220.53-25.59 221.78-25.07L221.78-25.07Q223.02-24.54 224.13-23.62 225.24-22.71 226.1-21.24L226.1-21.24Q226.95-19.75 227.44-17.66 227.93-15.58 227.93-12.7L227.93-12.7Q227.93-9.81 227.44-7.73 226.95-5.64 226.1-4.17L226.1-4.17Q225.24-2.69 224.13-1.76 223.02-0.83 221.78-0.32L221.78-0.32Q220.53 0.22 219.24 0.4 217.94 0.59 216.75 0.59L216.75 0.59Q215.57 0.59 214.29 0.4 213.01 0.22 211.77-0.32L211.77-0.32Q210.52-0.83 209.42-1.76 208.32-2.69 207.47-4.17L207.47-4.17Q206.61-5.64 206.13-7.73 205.64-9.81 205.64-12.7L205.64-12.7Q205.64-15.58 206.13-17.66 206.61-19.75 207.47-21.24L207.47-21.24Q208.32-22.71 209.42-23.62 210.52-24.54 211.77-25.07L211.77-25.07Q213.01-25.59 214.28-25.77 215.55-25.95 216.75-25.95ZM216.75-22.51L216.75-22.51Q215.35-22.51 214.12-22.07 212.89-21.63 211.96-20.53L211.96-20.53Q211.01-19.41 210.45-17.53 209.89-15.65 209.89-12.7L209.89-12.7Q209.89-9.77 210.45-7.87 211.01-5.98 211.96-4.88L211.96-4.88Q212.89-3.76 214.12-3.33 215.35-2.91 216.75-2.91L216.75-2.91Q218.16-2.91 219.42-3.33 220.68-3.76 221.63-4.88L221.63-4.88Q222.58-5.98 223.13-7.87 223.68-9.77 223.68-12.7L223.68-12.7Q223.68-15.65 223.13-17.53 222.58-19.41 221.63-20.53L221.63-20.53Q220.68-21.63 219.42-22.07 218.16-22.51 216.75-22.51ZM256.46-0.44L256.46-0.44 252.41 0.46Q251.94-1 251.75-2.37L251.75-2.37Q251.65-3 251.5-4.96L251.5-4.96 250.99-4.96Q249.65-2.49 247.67-1.03L247.67-1.03Q245.5 0.59 243.08 0.59L243.08 0.59Q239.44 0.59 237.54-1.17L237.54-1.17Q235.9-2.66 235.27-5.74L235.27-5.74Q234.85-7.84 234.85-11.99L234.85-11.99 234.85-25.39 239.05-25.39 239.05-10.82Q239.05-7.18 239.76-5.62L239.76-5.62Q240.81-3.3 243.98-3.3L243.98-3.3Q246.23-3.3 248.38-5.44L248.38-5.44Q249.82-6.88 251.45-9.67L251.45-9.67 251.45-25.39 255.65-25.39 255.65-9.72Q255.65-6.47 255.82-4.08L255.82-4.08Q255.92-2.59 256.46-0.44ZM269.07-19.51L269.29-19.51Q270.05-21.02 270.91-22.24 271.78-23.46 272.83-24.32L272.83-24.32Q273.78-25.15 274.93-25.55 276.08-25.95 277.54-25.95L277.54-25.95Q278.03-25.95 278.68-25.9 279.33-25.85 279.91-25.73L279.91-25.73Q279.81-24.51 279.68-23.44 279.54-22.36 279.33-21.26L279.33-21.26Q278.1-21.48 277.09-21.58 276.08-21.68 275.17-21.53L275.17-21.53Q274.1-21.34 273.31-20.81 272.51-20.29 271.84-19.42 271.17-18.55 270.54-17.35 269.9-16.14 269.14-14.58L269.14-14.58 269.14 0 264.95 0 264.95-15.65Q264.95-17.19 264.91-18.36 264.87-19.53 264.76-20.59 264.65-21.66 264.43-22.69 264.21-23.73 263.85-25L263.85-25Q264.87-25.27 265.86-25.49 266.85-25.71 267.88-25.9L267.88-25.9Q268.22-24.93 268.42-24.17 268.63-23.41 268.75-22.69 268.88-21.97 268.94-21.23 269-20.48 269.07-19.51L269.07-19.51ZM303.67-35.23L303.67-35.23Q304.79-35.23 305.62-34.45L305.62-34.45Q306.43-33.59 306.43-32.45L306.43-32.45Q306.43-31.27 305.62-30.47L305.62-30.47Q304.79-29.64 303.67-29.64L303.67-29.64Q302.5-29.64 301.67-30.47L301.67-30.47Q300.84-31.25 300.84-32.45L300.84-32.45Q300.84-33.62 301.67-34.45L301.67-34.45Q302.5-35.23 303.67-35.23ZM301.52 0L301.52-25.39 305.72-25.39 305.72 0 301.52 0ZM314.65-24.95L314.65-24.95 318.7-25.85Q319.17-24.39 319.36-23.02L319.36-23.02Q319.46-22.36 319.6-20.41L319.6-20.41 320.12-20.41Q321.46-22.88 323.44-24.34L323.44-24.34Q325.61-25.95 328.03-25.95L328.03-25.95Q331.67-25.95 333.57-24.19L333.57-24.19Q335.21-22.71 335.84-19.63L335.84-19.63Q336.26-17.53 336.26-13.38L336.26-13.38 336.26 0 332.06 0 332.06-14.55Q332.06-18.19 331.35-19.75L331.35-19.75Q330.3-22.07 327.12-22.07L327.12-22.07Q324.88-22.07 322.73-19.92L322.73-19.92Q321.29-18.48 319.65-15.7L319.65-15.7 319.65 0 315.45 0 315.45-15.63Q315.45-18.92 315.28-21.31L315.28-21.31Q315.19-22.8 314.65-24.95ZM343.64-24.95L343.64-24.95 347.7-25.85Q348.16-24.39 348.36-23.02L348.36-23.02Q348.45-22.36 348.6-20.41L348.6-20.41 349.11-20.41Q350.45-22.88 352.43-24.34L352.43-24.34Q354.61-25.95 357.02-25.95L357.02-25.95Q360.66-25.95 362.56-24.19L362.56-24.19Q364.2-22.71 364.83-19.63L364.83-19.63Q365.25-17.53 365.25-13.38L365.25-13.38 365.25 0 361.05 0 361.05-14.55Q361.05-18.19 360.34-19.75L360.34-19.75Q359.29-22.07 356.12-22.07L356.12-22.07Q353.87-22.07 351.72-19.92L351.72-19.92Q350.28-18.48 348.65-15.7L348.65-15.7 348.65 0 344.45 0 344.45-15.63Q344.45-18.92 344.28-21.31L344.28-21.31Q344.18-22.8 343.64-24.95ZM391.22-4.71L392.44-1.42Q389.73-0.34 387.35 0.12 384.97 0.59 383.09 0.59L383.09 0.59Q380.21 0.59 378.06-0.33 375.91-1.25 374.48-2.91 373.05-4.57 372.33-6.87 371.61-9.18 371.61-11.96L371.61-11.96Q371.61-13.67 371.86-15.38 372.1-17.09 372.64-18.64 373.17-20.19 374.04-21.53 374.91-22.88 376.15-23.85 377.4-24.83 379.06-25.39 380.72-25.95 382.84-25.95L382.84-25.95Q388.29-25.95 391.05-22.55 393.8-19.14 393.8-12.79L393.8-12.79 393.8-11.45 375.93-11.45Q375.93-9.4 376.37-7.82 376.81-6.25 377.73-5.16 378.64-4.08 380.05-3.52 381.45-2.95 383.38-2.95L383.38-2.95Q384.45-2.95 385.52-3.11 386.58-3.27 387.58-3.53 388.58-3.78 389.5-4.1 390.41-4.42 391.22-4.71L391.22-4.71ZM376.06-14.82L389.58-14.82Q389.39-18.77 387.69-20.59 385.99-22.41 382.84-22.41L382.84-22.41Q379.69-22.41 378.05-20.59 376.4-18.77 376.06-14.82L376.06-14.82ZM405.68-19.51L405.9-19.51Q406.66-21.02 407.53-22.24 408.39-23.46 409.44-24.32L409.44-24.32Q410.4-25.15 411.54-25.55 412.69-25.95 414.16-25.95L414.16-25.95Q414.64-25.95 415.29-25.9 415.94-25.85 416.52-25.73L416.52-25.73Q416.43-24.51 416.29-23.44 416.16-22.36 415.94-21.26L415.94-21.26Q414.72-21.48 413.7-21.58 412.69-21.68 411.79-21.53L411.79-21.53Q410.71-21.34 409.92-20.81 409.13-20.29 408.46-19.42 407.78-18.55 407.15-17.35 406.52-16.14 405.76-14.58L405.76-14.58 405.76 0 401.56 0 401.56-15.65Q401.56-17.19 401.52-18.36 401.49-19.53 401.38-20.59 401.27-21.66 401.05-22.69 400.83-23.73 400.46-25L400.46-25Q401.49-25.27 402.47-25.49 403.46-25.71 404.49-25.9L404.49-25.9Q404.83-24.93 405.04-24.17 405.25-23.41 405.37-22.69 405.49-21.97 405.55-21.23 405.61-20.48 405.68-19.51L405.68-19.51ZM441.97-0.02L441.97 9.77 437.77 9.77 437.77-15.82Q437.77-20.07 437.65-21.41L437.65-21.41Q437.53-23.07 437.09-24.98L437.09-24.98 441.14-25.88Q441.55-24.51 441.75-23.12L441.75-23.12Q441.99-21.41 442.02-20.48L442.02-20.48 442.38-20.48Q443.65-23.12 445.19-24.37L445.19-24.37Q447.05-25.95 449.78-25.95L449.78-25.95Q452.18-25.95 453.91-24.91 455.64-23.88 456.61-22.02 457.57-20.17 458.02-17.94 458.47-15.72 458.47-13.04L458.47-13.04Q458.47-10.01 457.85-7.59 457.23-5.18 455.93-3.31 454.64-1.44 452.47-0.43 450.3 0.59 447.37 0.59L447.37 0.59Q445.07 0.59 441.97-0.02L441.97-0.02ZM441.97-15.09L441.97-15.09 441.97-3.74Q444.73-3 447.05-3L447.05-3Q449.03-3 450.45-3.72 451.88-4.44 452.69-5.75 453.49-7.06 453.86-8.67 454.23-10.28 454.23-12.28L454.23-12.28Q454.23-13.65 454.16-14.69 454.1-15.72 453.95-16.93 453.79-18.14 453.44-18.99 453.1-19.85 452.59-20.58 452.08-21.31 451.26-21.69 450.44-22.07 449.37-22.07L449.37-22.07Q446.78-22.07 444.88-20L444.88-20Q443.51-18.48 441.97-15.09ZM475.46-25.95L475.46-25.95Q476.65-25.95 477.95-25.77 479.24-25.59 480.49-25.07L480.49-25.07Q481.73-24.54 482.84-23.62 483.95-22.71 484.81-21.24L484.81-21.24Q485.66-19.75 486.15-17.66 486.64-15.58 486.64-12.7L486.64-12.7Q486.64-9.81 486.15-7.73 485.66-5.64 484.81-4.17L484.81-4.17Q483.95-2.69 482.84-1.76 481.73-0.83 480.49-0.32L480.49-0.32Q479.24 0.22 477.95 0.4 476.65 0.59 475.46 0.59L475.46 0.59Q474.28 0.59 473 0.4 471.72 0.22 470.48-0.32L470.48-0.32Q469.23-0.83 468.13-1.76 467.03-2.69 466.18-4.17L466.18-4.17Q465.32-5.64 464.84-7.73 464.35-9.81 464.35-12.7L464.35-12.7Q464.35-15.58 464.84-17.66 465.32-19.75 466.18-21.24L466.18-21.24Q467.03-22.71 468.13-23.62 469.23-24.54 470.48-25.07L470.48-25.07Q471.72-25.59 472.99-25.77 474.26-25.95 475.46-25.95ZM475.46-22.51L475.46-22.51Q474.07-22.51 472.83-22.07 471.6-21.63 470.67-20.53L470.67-20.53Q469.72-19.41 469.16-17.53 468.6-15.65 468.6-12.7L468.6-12.7Q468.6-9.77 469.16-7.87 469.72-5.98 470.67-4.88L470.67-4.88Q471.6-3.76 472.83-3.33 474.07-2.91 475.46-2.91L475.46-2.91Q476.87-2.91 478.13-3.33 479.39-3.76 480.34-4.88L480.34-4.88Q481.29-5.98 481.84-7.87 482.39-9.77 482.39-12.7L482.39-12.7Q482.39-15.65 481.84-17.53 481.29-19.41 480.34-20.53L480.34-20.53Q479.39-21.63 478.13-22.07 476.87-22.51 475.46-22.51ZM517.22 0L517.22 0 511.63 0 508.58-11.79 503.67 0 498.15 0 491.66-25.42 495.86-25.42 501.2-3.05 507.11-17.7 505.13-25.42 509.33-25.42 514.83-3.05Q517.46-9.16 518.51-12.23L518.51-12.23Q519.78-15.97 519.78-18.65L519.78-18.65Q519.78-21 518.64-24.98L518.64-24.98Q520.86-25.54 522.66-25.88L522.66-25.88Q523.69-23.36 523.96-20.46L523.96-20.46Q524.03-19.73 524.03-18.97L524.03-18.97Q524.03-14.97 521.79-9.64L521.79-9.64Q521.17-8.23 520.41-6.6 519.64-4.98 518.6-2.84 517.56-0.71 517.22 0ZM549.34-4.71L550.56-1.42Q547.85-0.34 545.47 0.12 543.09 0.59 541.21 0.59L541.21 0.59Q538.33 0.59 536.18-0.33 534.03-1.25 532.6-2.91 531.18-4.57 530.45-6.87 529.73-9.18 529.73-11.96L529.73-11.96Q529.73-13.67 529.98-15.38 530.22-17.09 530.76-18.64 531.3-20.19 532.16-21.53 533.03-22.88 534.28-23.85 535.52-24.83 537.18-25.39 538.84-25.95 540.97-25.95L540.97-25.95Q546.41-25.95 549.17-22.55 551.93-19.14 551.93-12.79L551.93-12.79 551.93-11.45 534.06-11.45Q534.06-9.4 534.5-7.82 534.93-6.25 535.85-5.16 536.77-4.08 538.17-3.52 539.57-2.95 541.5-2.95L541.5-2.95Q542.58-2.95 543.64-3.11 544.7-3.27 545.7-3.53 546.7-3.78 547.62-4.1 548.53-4.42 549.34-4.71L549.34-4.71ZM534.18-14.82L547.7-14.82Q547.51-18.77 545.81-20.59 544.11-22.41 540.97-22.41L540.97-22.41Q537.82-22.41 536.17-20.59 534.52-18.77 534.18-14.82L534.18-14.82ZM563.81-19.51L564.03-19.51Q564.78-21.02 565.65-22.24 566.52-23.46 567.57-24.32L567.57-24.32Q568.52-25.15 569.67-25.55 570.81-25.95 572.28-25.95L572.28-25.95Q572.77-25.95 573.41-25.9 574.06-25.85 574.65-25.73L574.65-25.73Q574.55-24.51 574.42-23.44 574.28-22.36 574.06-21.26L574.06-21.26Q572.84-21.48 571.83-21.58 570.81-21.68 569.91-21.53L569.91-21.53Q568.84-21.34 568.04-20.81 567.25-20.29 566.58-19.42 565.91-18.55 565.27-17.35 564.64-16.14 563.88-14.58L563.88-14.58 563.88 0 559.68 0 559.68-15.65Q559.68-17.19 559.64-18.36 559.61-19.53 559.5-20.59 559.39-21.66 559.17-22.69 558.95-23.73 558.58-25L558.58-25Q559.61-25.27 560.6-25.49 561.59-25.71 562.61-25.9L562.61-25.9Q562.95-24.93 563.16-24.17 563.37-23.41 563.49-22.69 563.61-21.97 563.67-21.23 563.73-20.48 563.81-19.51L563.81-19.51Z" opacity="1" transform="matrix(1,0,0,1,0,0)" fill="#ffffff" class="slogan-text-1" data-fill-palette-color="secondary" id="text-1"></path></svg></g></svg></g></svg></g></svg></g><g transform="matrix(1,0,0,1,132.915328319528,0)"><svg viewBox="0 0 129.689343360944 129.689343360944" height="129.689343360944" width="129.689343360944"><g><svg xmlns="http://www.w3.org/2000/svg" xmlns:xlink="http://www.w3.org/1999/xlink" version="1.1" x="0" y="0" viewBox="5 5 90 90" enable-background="new 0 0 100 100" xml:space="preserve" height="129.689343360944" width="129.689343360944" class="icon-icon-0" data-fill-palette-color="accent" id="icon-0"><path d="M84.3 5.7C83.8 5.3 83.2 5 82.5 5h-65c-0.7 0-1.3 0.3-1.8 0.7l-10 10C5.3 16.2 5 16.8 5 17.5v65c0 0.7 0.3 1.3 0.7 1.8l10 10c0.5 0.5 1.1 0.7 1.8 0.7h65c0.7 0 1.3-0.3 1.8-0.7l10-10c0.5-0.5 0.7-1.1 0.7-1.8v-65c0-0.7-0.3-1.3-0.7-1.8L84.3 5.7zM86.3 76.1V23.9L90 21V79L86.3 76.1zM10 79V21l3.8 2.9v52.1L10 79zM16.3 25.9l5 3.9c0 0.1 0 0.1 0 0.2v40c0 0.1 0 0.1 0 0.2l-5 3.9V25.9zM70.1 33.3l-3.4-3.4 3.9-5 4.6 4.6L70.1 33.3zM35.6 71.3h28.8l3.9 5H31.7L35.6 71.3zM64.5 68.8h-29l-4.3-4.3v-29l4.3-4.3h29l4.3 4.3v29L64.5 68.8zM64.4 28.8H35.6l-3.9-5h36.6L64.4 28.8zM70.2 21.3c-0.1 0-0.1 0-0.2 0H30c-0.1 0-0.1 0-0.2 0l-3.9-5h48.2L70.2 21.3zM33.3 29.9l-3.4 3.4-5-3.9 4.6-4.6L33.3 29.9zM28.8 35.6v28.8l-5 3.9V31.7L28.8 35.6zM29.9 66.7l3.4 3.4-3.9 5-4.6-4.6L29.9 66.7zM29.8 78.7c0.1 0 0.1 0 0.2 0h40c0.1 0 0.1 0 0.2 0l3.9 5H25.9L29.8 78.7zM66.7 70.1l3.4-3.4 5 3.9-4.6 4.6L66.7 70.1zM71.3 64.4V35.6l5-3.9v36.6L71.3 64.4zM77.1 27.9l-5-5 4.5-5.7 6.3 6.3L77.1 27.9zM76.1 13.8H23.9L21 10H79L76.1 13.8zM27.9 22.9l-5 5-6.4-5 6.4-6.4L27.9 22.9zM22.9 72.1l5 5-5 6.4-6.4-6.4L22.9 72.1zM23.9 86.3h52.1L79 90H21L23.9 86.3zM72.1 77.1l5-5 6.4 5-6.4 6.4L72.1 77.1zM78.7 70.2c0-0.1 0-0.1 0-0.2V30c0-0.1 0-0.1 0-0.2l5-3.9v48.2L78.7 70.2zM89.6 18.2l-4.8 3.7-6.7-6.7 3.7-4.8L89.6 18.2zM18.2 10.4l3.1 4-6.9 6.9-4-3.1L18.2 10.4zM10.4 81.8l4-3.1 6.9 6.9-3.1 4L10.4 81.8zM81.8 89.6l-3.1-4 6.9-6.9 4 3.1L81.8 89.6z" fill="#ffffff" data-fill-palette-color="accent"></path></svg></g></svg></g><g></g></svg></g><defs></defs></svg><rect width="395.52" height="235.4798229821597" fill="none" stroke="none" visibility="hidden"></rect></g></svg></g></svg>